Sinopse e detalhes

Jack Monahan (Antonio Banderas) é um criminoso que está passando por uma grande maré de azar. Sua vida muda quando conhece Ripley (Morgan Freeman), um experiente ladrão que o chama para participar de um arriscado roubo, envolvendo uma das jóias mais valiosas da atualidade. O objeto está guardado a sete chaves em uma joalheria russa, sendo que Ripley precisa roubá-la para quitar uma dívida com a máfia. Jack aceita o convite, mesmo sabendo que no mundo do crime não pode confiar em alguém.


Format : Matroska
Format version : Version 2
File size : 651 MiB
Duration : 1h 43mn
Overall bit rate : 877 Kbps
Movie name : Rio (MKV by TofuShoyu)
Encoded date : UTC 2013-06-11 08:58:09
Writing application : mkvmerge v5.8.0 ('No Sleep / Pillow') built on Sep 2 2012 15:37:04
Writing library : libebml v1.2.3 + libmatroska v1.3.0

Video
ID : 1
Format : AVC
Format/Info : Advanced Video Codec
Format profile : High@L4.1
Format settings, CABAC : Yes
Format settings, ReFrames : 4 frames
Muxing mode : Header stripping
Codec ID : V_MPEG4/ISO/AVC
Duration : 1h 43mn
Bit rate : 636 Kbps
Width : 720 pixels
Height : 400 pixels
Display aspect ratio : 16:9
Frame rate mode : Constant
Frame rate : 23.976 fps
Color space : YUV
Chroma subsampling : 4:2:0
Bit depth : 8 bits
Scan type : Progressive
Bits/(Pixel*Frame) : 0.092
Stream size : 472 MiB (72%)
Title : Jogo entre Ladrões( Zagor Lukas )
Writing library : x264 core 130 r2273 b3065e6
Encoding settings : cabac=1 / ref=3 / deblock=1:0:0 / analyse=0x3:0x113 / me=hex / subme=7 / psy=1 / psy_rd=1.00:0.00 / mixed_ref=1 / me_range=16 / chroma_me=1 / trellis=1 / 8x8dct=1 / cqm=0 / deadzone=21,11 / fast_pskip=1 / chroma_qp_offset=-2 / threads=3 / lookahead_threads=1 / sliced_threads=0 / nr=0 / decimate=1 / interlaced=0 / bluray_compat=0 / constrained_intra=0 / bframes=3 / b_pyramid=2 / b_adapt=1 / b_bias=0 / direct=1 / weightb=1 / open_gop=0 / weightp=2 / keyint=240 / keyint_min=23 / scenecut=40 / intra_refresh=0 / rc_lookahead=40 / rc=crf / mbtree=1 / crf=23.0 / qcomp=0.60 / qpmin=0 / qpmax=69 / qpstep=4 / vbv_maxrate=24000 / vbv_bufsize=24000 / crf_max=0.0 / nal_hrd=none / ip_ratio=1.40 / aq=1:1.00
Language : Portuguese
Default : Yes
Forced : No

Audio
ID : 2
Format : AC-3
Format/Info : Audio Coding 3
Mode extension : CM (complete main)
Format settings, Endianness : Big
Muxing mode : Header stripping
Codec ID : A_AC3
Duration : 1h 43mn
Bit rate mode : Constant
Bit rate : 224 Kbps
Channel(s) : 2 channels
Channel positions : Front: L R
Sampling rate : 48.0 KHz
Bit depth : 16 bits
Compression mode : Lossy
Stream size : 166 MiB (26%)
Title : por
Language : Portuguese
Default : Yes
Forced : No

Text #1
ID : 3
Format : VobSub
Muxing mode : zlib
Codec ID : S_VOBSUB
Codec ID/Info : The same subtitle format used on DVDs
Title : por
Language : Portuguese
Default : No
Forced : No

Text #2
ID : 4
Format : ASS
Codec ID : S_TEXT/ASS
Codec ID/Info : Advanced Sub Station Alpha
Compression mode : Lossless
Title : Credito
Language : Portuguese
Default : Yes
Forced : No

Menu
00:00:00.000 : en:Chapter 01
00:07:28.500 : en:Chapter 02
00:12:48.500 : en:Chapter 03
00:17:47.000 : en:Chapter 04
00:23:40.000 : en:Chapter 05
00:33:10.500 : en:Chapter 06
00:39:39.000 : en:Chapter 07
00:46:33.000 : en:Chapter 08
00:56:01.000 : en:Chapter 09
01:07:45.000 : en:Chapter 10
01:16:50.500 : en:Chapter 11
01:32:44.000 : en:Chapter 12
01:43:37.834 : en:Chapter 13